<?xml version="1.0" standalone="no"?>
<!DOCTYPE svg PUBLIC "-//W3C//DTD SVG 20010904//EN"
 "http://www.w3.org/TR/2001/REC-SVG-20010904/DTD/svg10.dtd">
<svg version="1.0" xmlns="http://www.w3.org/2000/svg"
 width="862.000000pt" height="674.000000pt" viewBox="0 0 862.000000 674.000000"
 preserveAspectRatio="xMidYMid meet">

<g transform="translate(0.000000,674.000000) scale(0.100000,-0.100000)"
fill="#000000" stroke="none">
<path d="M2547 6670 c-81 -8 -77 -6 -143 -81 -12 -13 -32 -33 -45 -43 -13 -10
-53 -46 -89 -80 -36 -34 -93 -87 -128 -118 -62 -58 -84 -100 -63 -121 13 -13
50 18 94 83 17 25 81 95 144 157 93 92 124 116 171 133 85 32 159 37 213 13
45 -20 249 -207 249 -229 0 -6 -37 -44 -82 -85 -46 -40 -102 -92 -124 -114
-51 -49 -154 -201 -154 -227 0 -21 191 -217 232 -237 14 -7 38 -11 51 -7 25 6
134 107 215 199 23 26 48 47 54 47 26 0 154 -117 215 -196 l24 -32 2 -538 2
-539 -23 -3 c-12 -2 -24 3 -26 10 -3 7 -7 235 -10 506 l-6 494 -61 69 c-34 38
-69 69 -78 69 -29 0 -74 -35 -177 -137 -55 -55 -110 -105 -121 -111 -18 -10
-32 0 -121 91 -56 56 -155 157 -221 224 -67 67 -121 127 -121 133 0 7 55 71
123 143 135 145 172 196 162 226 -9 28 -84 100 -111 107 -18 5 -39 -6 -89 -45
-35 -28 -72 -51 -80 -51 -17 0 -35 -38 -28 -57 10 -26 41 -11 108 52 74 70 68
70 128 16 15 -14 27 -31 27 -39 0 -20 -50 -80 -162 -192 -52 -52 -107 -114
-123 -138 l-28 -42 54 -57 c115 -123 386 -390 414 -409 74 -51 59 -57 211 96
77 77 144 140 149 140 6 0 30 -17 53 -37 l42 -38 1 -501 c1 -276 -2 -507 -5
-513 -4 -6 -16 -11 -27 -11 -18 0 -19 10 -20 258 -1 141 -2 289 -4 327 -1 39
-3 139 -4 223 -1 167 -3 170 -59 135 -32 -20 -109 -98 -135 -136 -9 -14 -23
-24 -30 -22 -19 7 -39 -10 -35 -30 1 -10 15 -22 31 -26 22 -6 30 -3 40 15 16
28 111 116 126 116 13 0 15 -286 4 -879 l-6 -384 -161 6 c-233 9 -226 1 -112
114 53 52 96 98 96 103 0 16 -30 31 -47 24 -10 -4 -63 -53 -117 -110 -92 -96
-99 -105 -88 -128 9 -20 20 -25 74 -31 35 -3 79 -8 98 -11 65 -8 225 -24 243
-24 13 0 17 -6 15 -22 -3 -23 -5 -23 -133 -22 -189 3 -285 13 -368 40 -82 27
-87 65 -19 139 26 28 71 80 101 116 29 35 102 115 162 177 107 112 127 142 91
142 -15 0 -239 -215 -302 -290 -41 -48 -57 -66 -123 -128 l-67 -63 36 -72 c20
-40 38 -74 40 -75 1 -2 132 -16 291 -30 261 -25 288 -29 291 -46 4 -17 -4 -18
-150 -13 -197 7 -247 13 -393 43 -120 26 -163 41 -181 66 -6 7 -20 46 -33 87
-22 72 -23 75 -5 88 78 57 214 189 433 422 170 179 211 227 211 247 0 24 -101
139 -277 316 -96 97 -188 182 -204 188 -41 18 -81 -10 -227 -157 -68 -68 -127
-123 -132 -121 -7 3 -374 355 -494 474 -28 28 -59 62 -68 77 l-18 26 -293 -6
c-293 -6 -294 -6 -299 15 -6 21 -7 21 -47 5 -23 -9 -41 -23 -42 -32 0 -9 -2
-24 -4 -33 -5 -26 22 -30 141 -18 60 5 163 10 229 10 106 0 162 -6 297 -29 34
-6 95 -62 225 -210 116 -132 322 -319 385 -350 l29 -15 150 150 150 149 177
-183 c97 -100 194 -199 215 -221 l38 -38 -133 -141 c-73 -78 -151 -161 -173
-184 -22 -24 -74 -73 -115 -108 -113 -98 -203 -191 -224 -231 -18 -34 -18 -39
-4 -70 8 -19 24 -58 34 -87 10 -29 26 -60 35 -68 40 -36 518 -112 711 -114 56
0 57 -1 55 -27 -2 -26 -5 -28 -57 -31 -158 -10 -637 42 -738 80 -57 21 -58 23
-158 188 l-51 85 48 55 c55 64 89 98 398 404 127 126 231 237 231 246 0 33
-250 300 -281 300 -18 0 -38 -17 -221 -198 -107 -105 -119 -114 -145 -108 -19
5 -104 84 -253 235 -124 126 -240 236 -258 245 -31 16 -77 14 -70 -4 12 -31
401 -430 502 -513 68 -57 69 -58 90 -39 69 61 110 98 120 108 6 6 58 54 114
107 l104 97 31 -17 c56 -29 107 -76 148 -136 21 -33 39 -63 39 -67 0 -11 -66
-86 -160 -181 -47 -47 -148 -150 -225 -228 -76 -77 -142 -141 -146 -141 -18 0
-107 -82 -126 -117 l-22 -39 57 -92 c92 -147 152 -232 175 -246 13 -8 97 -20
202 -30 99 -9 272 -25 385 -36 113 -11 217 -20 233 -20 20 0 27 -5 27 -20 0
-19 -7 -20 -122 -20 -205 0 -551 19 -645 36 -138 24 -161 33 -201 82 -21 24
-53 63 -73 85 -19 23 -71 89 -114 147 -43 58 -82 107 -87 108 -4 2 -8 9 -8 16
0 14 198 211 315 314 44 38 105 98 135 132 30 35 59 68 65 74 6 6 19 22 28 36
10 14 40 38 68 55 82 49 106 115 40 115 -34 0 -72 -39 -92 -94 -8 -22 -26 -42
-48 -54 -39 -22 -176 -144 -263 -234 -235 -242 -308 -321 -308 -333 0 -13 91
-165 115 -192 5 -6 48 -57 95 -114 47 -56 101 -120 120 -140 l35 -38 195 -20
c107 -11 236 -22 285 -25 223 -14 276 -17 372 -18 102 -1 103 -1 103 -25 0
-13 -8 -27 -17 -30 -16 -6 -280 7 -533 28 -69 6 -196 10 -284 10 -166 0 -199
7 -228 48 -7 10 -45 54 -83 97 -77 86 -167 186 -175 194 -3 3 -27 32 -55 65
-27 33 -72 83 -98 112 l-49 52 109 113 c59 62 156 163 216 223 59 61 107 116
107 122 0 18 -223 250 -463 482 l-97 94 -272 -6 c-149 -3 -275 -10 -280 -15
-14 -14 7 -49 34 -56 13 -3 32 -21 43 -40 33 -57 99 -128 216 -232 127 -114
229 -229 229 -258 0 -26 -39 -70 -253 -283 l-172 -173 23 -42 c12 -24 53 -74
92 -113 39 -40 70 -79 70 -90 0 -12 -29 -49 -71 -90 -38 -39 -96 -101 -127
-139 -31 -37 -79 -83 -107 -102 -53 -36 -405 -381 -405 -397 0 -5 -19 -28 -42
-50 -53 -50 -88 -96 -88 -114 0 -8 26 -42 58 -76 31 -34 67 -76 79 -92 16 -23
29 -30 50 -29 26 1 28 4 25 35 -2 27 -17 49 -70 102 l-67 68 81 77 c99 95 393
356 405 360 5 2 9 7 9 12 0 26 98 146 220 268 99 100 140 149 140 165 0 29
-31 72 -126 170 -87 91 -90 76 35 193 45 43 91 94 101 114 16 31 84 99 188
185 17 15 32 35 32 46 0 20 -87 116 -205 228 -172 163 -285 280 -285 297 0 16
9 16 107 11 58 -4 156 -7 218 -7 l112 0 242 -239 c167 -165 240 -244 235 -253
-21 -36 -104 -126 -239 -262 -83 -83 -157 -166 -164 -184 -13 -31 -12 -35 24
-90 51 -75 120 -159 198 -235 75 -74 255 -265 278 -293 18 -23 42 -26 454 -44
121 -6 256 -12 300 -15 44 -3 133 -6 198 -8 104 -2 118 -4 123 -21 3 -10 1
-23 -4 -28 -7 -7 -155 -9 -454 -5 -426 6 -586 15 -655 38 -22 7 -73 54 -150
136 -65 69 -179 187 -253 263 -74 75 -163 166 -197 201 l-63 64 48 52 c26 28
78 86 115 128 37 42 112 115 167 162 55 47 100 89 100 93 0 22 -67 99 -185
215 -73 72 -140 142 -150 158 -20 32 -26 33 -54 10 -26 -22 -19 -59 12 -67 24
-6 201 -175 260 -247 20 -25 37 -55 37 -66 0 -11 -27 -51 -60 -88 -33 -37 -60
-71 -60 -76 0 -4 -21 -20 -47 -35 -26 -15 -92 -71 -146 -125 -89 -87 -98 -99
-88 -118 14 -25 181 -220 237 -276 82 -81 330 -343 378 -397 l49 -56 101 -6
c56 -3 252 -8 436 -11 184 -3 378 -8 430 -11 52 -3 113 -1 135 4 43 9 65 -1
65 -31 0 -21 -43 -27 -156 -21 -271 12 -798 21 -869 15 -60 -6 -91 -14 -125
-34 -75 -45 -38 -72 -376 275 -82 85 -156 158 -163 162 -8 5 -83 -63 -218
-196 -113 -111 -212 -209 -219 -216 -19 -18 -18 -29 5 -42 30 -16 38 -12 44
18 7 35 242 276 320 327 l58 38 152 -150 c273 -269 340 -333 350 -333 6 0 35
24 66 53 l56 52 535 -16 c294 -10 536 -17 538 -18 1 -1 2 -10 2 -21 0 -20 -7
-20 -332 -21 -298 -1 -648 -4 -750 -8 -21 0 -46 -9 -56 -18 -10 -10 -34 -26
-54 -35 l-37 -17 -183 184 c-100 102 -186 184 -189 183 -4 -2 -82 -76 -174
-165 -92 -90 -173 -163 -180 -163 -13 0 -94 -83 -142 -146 -31 -41 -27 -65 23
-125 45 -55 198 -212 294 -302 l72 -67 -28 -38 c-44 -60 -86 -92 -143 -108
-74 -22 -317 -32 -443 -18 -122 13 -152 8 -156 -28 -4 -33 20 -42 86 -34 107
15 144 15 291 5 238 -16 284 1 420 158 l54 63 -39 56 c-35 51 -151 170 -321
329 -35 32 -63 64 -63 71 0 7 17 30 37 51 20 21 59 65 87 98 96 114 255 266
299 286 28 13 31 10 265 -216 73 -71 139 -131 145 -133 7 -1 31 16 55 38 l43
40 557 -3 557 -4 3 -22 c4 -26 41 -24 -588 -26 -311 -1 -471 -5 -484 -12 -11
-6 -54 -45 -96 -88 l-77 -77 -34 18 c-19 9 -86 68 -149 130 -122 120 -148 143
-166 144 -5 0 -33 -22 -61 -49 -28 -27 -62 -51 -74 -53 -13 -2 -29 -14 -36
-28 -7 -14 -30 -43 -51 -65 -21 -22 -42 -46 -46 -53 -12 -20 64 -113 216 -262
76 -75 138 -141 138 -146 0 -6 -54 -69 -121 -140 -87 -93 -137 -137 -178 -159
l-56 -30 -235 -5 c-272 -6 -249 2 -362 -115 -40 -42 -89 -85 -108 -96 -20 -11
-47 -37 -60 -57 -32 -47 -46 -62 -59 -62 -11 0 -41 -39 -41 -55 0 -18 39 -36
65 -29 19 5 25 13 25 35 0 16 4 29 10 29 5 0 65 54 131 121 173 171 156 164
430 164 204 0 229 2 262 19 19 11 41 30 48 43 7 13 69 76 137 141 165 156 192
182 192 193 0 31 -69 111 -185 214 -88 78 -185 174 -185 184 0 3 13 21 29 40
25 29 33 33 61 28 l32 -7 -7 38 c-5 33 -2 41 26 70 62 63 64 62 231 -107 82
-83 154 -151 161 -151 13 0 122 92 145 122 7 9 32 26 55 38 43 22 48 22 553
18 l509 -3 0 -24 0 -23 -509 1 -510 2 -142 -142 c-109 -109 -146 -140 -160
-135 -25 8 -124 103 -194 185 -88 104 -98 113 -117 109 -35 -7 -26 -39 22 -82
26 -22 99 -92 162 -154 63 -61 122 -112 132 -112 9 0 75 57 146 126 72 70 139
129 150 133 24 9 959 13 998 5 21 -4 27 -11 25 -26 -3 -19 -12 -20 -408 -24
-223 -2 -423 -5 -445 -8 -22 -2 -66 -6 -97 -8 -32 -1 -58 -5 -58 -8 0 -3 -16
-14 -35 -24 -39 -21 -124 -107 -215 -217 -72 -86 -127 -145 -199 -213 -49 -46
-61 -74 -34 -83 7 -3 91 73 187 169 96 95 195 193 221 217 26 25 59 62 72 83
l26 38 481 0 c264 0 487 -4 494 -9 8 -5 12 -16 10 -26 -3 -17 -22 -18 -263
-20 -143 -1 -353 -2 -467 -3 l-207 -2 -63 -67 c-170 -180 -276 -290 -308 -317
-19 -17 -98 -92 -175 -168 -285 -278 -274 -269 -357 -279 -40 -4 -118 -8 -173
-9 -124 -1 -147 -11 -252 -107 -43 -39 -91 -82 -106 -95 -26 -21 -27 -26 -16
-55 6 -18 16 -33 23 -33 17 0 36 21 36 41 0 9 17 28 38 42 20 14 66 53 101 86
54 51 70 61 100 61 20 0 99 2 176 3 185 4 194 8 346 182 24 27 60 63 78 80 77
67 180 174 194 201 13 25 120 131 341 338 l39 36 456 -2 c448 -3 456 -3 456
-23 0 -20 -7 -20 -445 -22 -370 -2 -447 -5 -455 -17 -6 -7 -161 -167 -345
-355 -184 -188 -336 -346 -338 -351 -2 -4 1 -11 6 -14 17 -11 96 52 239 191
78 76 170 163 204 193 33 30 69 71 79 91 10 20 34 47 52 61 18 14 53 46 78 70
87 84 53 79 445 77 193 -1 380 -4 418 -6 63 -5 67 -7 67 -29 l0 -24 -416 0
-417 0 -41 -43 c-23 -24 -72 -77 -110 -118 -116 -125 -360 -371 -416 -419 -92
-78 -181 -164 -201 -192 l-20 -27 27 -53 c17 -34 57 -82 110 -132 46 -43 84
-82 84 -87 0 -21 -141 -173 -359 -386 -130 -127 -243 -243 -250 -256 -12 -22
-11 -30 7 -59 12 -19 83 -92 158 -163 76 -72 142 -135 148 -141 233 -241 333
-334 359 -334 15 0 207 194 231 234 l18 28 -128 124 c-70 68 -156 147 -189
176 -66 56 -145 152 -145 174 0 17 -32 18 -48 2 -16 -16 -15 -38 2 -38 7 0 32
-24 55 -54 23 -30 75 -82 116 -115 87 -73 235 -222 253 -257 11 -21 11 -27 -3
-40 -8 -8 -15 -19 -15 -23 0 -11 -89 -102 -120 -124 -48 -33 -28 -48 -389 307
-237 234 -256 256 -247 291 7 27 311 337 420 430 100 85 150 140 176 199 22
48 21 50 -76 136 -41 36 -74 69 -74 75 0 5 -9 21 -20 35 -11 14 -20 33 -20 42
0 9 46 62 103 118 56 55 122 122 147 148 24 26 67 67 94 92 67 60 268 262 334
334 l53 59 400 0 c220 0 401 -2 403 -4 6 -6 9 -203 7 -405 l-3 -181 -246 -6
c-308 -7 -328 -13 -388 -114 l-26 -44 28 -52 c29 -56 40 -67 96 -97 34 -18 58
-20 335 -20 164 -1 305 -5 312 -10 12 -7 14 -89 12 -511 -1 -277 -3 -504 -4
-505 -1 -1 -113 -5 -248 -9 -183 -6 -251 -5 -268 4 -60 33 -361 358 -353 383
1 5 -12 8 -30 6 -25 -2 -33 -9 -39 -30 -6 -25 -3 -30 31 -51 21 -12 76 -59
122 -102 46 -44 104 -99 129 -122 24 -23 55 -54 69 -69 55 -59 52 -59 340 -62
207 -2 269 0 284 11 26 19 39 295 34 739 -3 289 -7 359 -18 373 -13 16 -36 17
-280 10 -296 -8 -360 -1 -418 44 -18 14 -40 38 -48 53 -13 25 -12 28 23 58 66
58 83 62 296 54 106 -4 218 -4 250 0 69 9 70 11 85 142 10 83 6 167 -14 307
l-7 49 29 -4 c29 -3 29 -3 36 -88 10 -132 5 -447 -8 -460 -7 -7 -104 -12 -273
-14 -278 -3 -285 -5 -279 -50 3 -18 12 -19 153 -17 282 3 450 12 458 24 4 7 7
144 6 306 -1 227 2 295 11 301 19 12 37 2 44 -23 3 -12 6 -422 6 -910 0 -812
1 -888 16 -894 9 -3 24 -2 33 4 15 9 16 86 12 859 -2 467 -6 1043 -8 1279 l-5
430 161 159 c88 88 166 163 174 167 14 8 63 -48 146 -171 25 -36 49 -69 53
-75 4 -5 26 -35 47 -65 22 -30 44 -59 49 -65 16 -19 127 -177 147 -208 11 -18
27 -41 37 -51 10 -11 18 -24 18 -29 0 -5 18 -35 40 -66 23 -31 84 -117 137
-191 53 -74 98 -137 100 -140 5 -5 375 -2 381 4 2 3 -25 44 -62 91 -36 47 -66
89 -66 94 0 5 -3 11 -8 13 -6 2 -57 69 -182 238 -10 14 -54 72 -97 129 -43 57
-87 116 -98 131 -11 15 -46 61 -77 103 -32 42 -58 80 -58 85 0 5 -9 17 -20 27
-11 10 -20 24 -20 31 0 7 -4 14 -8 16 -8 3 -97 115 -159 201 -16 21 -38 51
-50 66 -13 16 -23 35 -23 42 0 13 276 286 610 604 236 225 259 248 254 257 -3
4 -87 8 -187 8 l-182 0 -146 -147 c-80 -82 -296 -294 -479 -473 -183 -179
-349 -342 -368 -362 -19 -21 -41 -38 -49 -38 -11 0 -13 85 -12 478 0 262 4
512 7 555 4 42 5 81 1 85 -4 4 -9 225 -12 491 l-6 484 -31 63 c-33 67 -97 140
-174 197 -73 55 -55 63 -251 -108 -44 -38 -89 -77 -99 -85 -17 -14 -25 -8
-112 85 -52 55 -94 108 -94 117 0 43 99 156 243 277 118 98 116 94 87 148 -29
55 -187 205 -243 231 -53 25 -112 31 -210 22z"/>
<path d="M2904 6071 c-45 -33 -93 -61 -109 -63 -28 -3 -30 -6 -27 -38 4 -46
11 -51 52 -40 26 7 53 31 105 92 38 46 73 85 77 86 5 2 8 8 8 13 0 21 -31 6
-106 -50z"/>
<path d="M616 4975 c-20 -13 -50 -40 -67 -59 -17 -20 -46 -45 -64 -56 -19 -12
-43 -40 -55 -65 -16 -33 -28 -45 -48 -47 -25 -3 -27 -7 -27 -48 0 -41 2 -45
25 -45 17 0 29 8 37 25 7 15 49 57 94 95 45 39 89 77 98 86 31 31 70 51 89 45
27 -9 122 -111 122 -131 0 -17 -37 -58 -314 -347 -93 -98 -177 -180 -188 -184
-10 -3 -27 -22 -38 -42 -11 -20 -26 -45 -32 -54 -16 -23 -5 -32 29 -23 18 4
107 87 258 239 127 128 241 241 255 252 14 10 47 47 74 82 35 46 46 69 42 85
-5 23 -117 144 -174 190 -42 33 -69 34 -116 2z"/>
<path d="M5780 4060 c-10 -6 -13 -165 -12 -775 0 -446 4 -771 10 -777 5 -5 49
-8 98 -6 l89 3 -4 775 c-2 426 -4 776 -5 777 -6 7 -166 9 -176 3z"/>
<path d="M7459 3983 c0 -43 0 -366 0 -718 1 -352 1 -668 1 -703 l0 -63 88 3
87 3 0 58 c0 31 2 57 5 57 3 0 24 -19 45 -41 81 -84 223 -124 350 -97 101 21
250 113 276 172 5 12 23 42 39 68 50 82 72 168 77 314 7 158 -10 250 -66 364
-52 106 -124 177 -226 220 -73 31 -89 34 -180 35 -90 0 -105 -3 -155 -28 -30
-16 -74 -45 -98 -64 -24 -19 -46 -32 -50 -29 -3 4 -7 118 -9 254 -2 136 -5
253 -8 260 -3 8 -31 12 -90 12 l-85 0 -1 -77z m596 -514 c69 -35 135 -112 135
-156 0 -7 4 -13 9 -13 28 0 50 -236 32 -350 -17 -108 -54 -182 -118 -240 -64
-56 -117 -74 -200 -68 -80 6 -149 43 -195 104 -50 66 -67 118 -80 252 -21 223
36 380 169 463 68 42 174 46 248 8z"/>
<path d="M6625 3654 c-162 -34 -221 -57 -292 -119 -66 -56 -143 -235 -102
-235 8 0 45 -5 83 -10 76 -11 106 -7 106 16 0 24 35 86 68 120 42 44 92 59
202 59 117 0 179 -17 222 -61 51 -52 77 -183 41 -202 -19 -10 -135 -33 -263
-52 -238 -37 -308 -58 -384 -116 -136 -104 -163 -317 -57 -452 68 -86 178
-132 316 -132 127 0 274 48 365 120 21 16 42 30 48 30 5 0 13 -16 17 -36 15
-83 17 -84 127 -84 61 0 98 4 98 10 0 6 -10 39 -21 73 -20 57 -22 90 -29 447
-6 360 -8 388 -28 432 -58 130 -210 199 -432 197 -36 -1 -74 -3 -85 -5z m341
-620 c10 -38 -2 -141 -22 -201 -22 -69 -80 -128 -164 -167 -58 -28 -75 -31
-155 -31 -118 0 -175 27 -214 102 -20 39 -14 115 14 155 35 52 95 76 257 104
79 14 170 33 203 43 78 25 74 25 81 -5z"/>
<path d="M4933 3422 c-80 -3 -82 -3 -87 -30 -8 -36 -1 -215 8 -230 5 -9 82
-12 291 -12 156 0 290 3 299 6 13 5 16 27 16 135 0 96 -3 129 -12 130 -25 3
-435 4 -515 1z"/>
<path d="M2403 2503 l-81 -4 -59 -65 c-87 -98 -161 -171 -213 -209 -85 -62
-310 -308 -310 -339 0 -13 95 -121 178 -201 27 -27 27 -35 3 -61 -10 -11 -38
-47 -62 -80 -46 -62 -103 -122 -134 -140 -22 -12 -14 -44 10 -44 19 0 179 161
238 238 35 46 38 54 26 69 -23 28 -42 46 -86 81 -41 32 -103 117 -103 141 0 7
17 31 38 53 20 22 55 59 76 81 81 87 198 206 304 310 l109 107 185 0 c197 0
204 2 187 48 -8 21 -13 22 -116 20 -59 -1 -145 -4 -190 -5z"/>
<path d="M2820 2411 c-8 -5 -109 -11 -224 -13 l-208 -3 -57 -65 c-31 -35 -138
-147 -239 -249 -155 -157 -182 -188 -177 -208 3 -13 10 -23 15 -23 6 0 10 -6
10 -14 0 -8 40 -54 89 -102 l89 -88 -59 -70 c-92 -110 -149 -166 -169 -166
-22 0 -32 -34 -16 -55 13 -18 46 -11 46 9 0 7 19 31 43 53 154 146 227 219
225 224 -6 15 -76 96 -107 124 -19 16 -52 46 -74 66 l-41 36 33 52 c19 28 117
132 220 231 l186 180 75 0 c394 1 400 2 400 63 0 21 -5 27 -22 27 -13 0 -30
-4 -38 -9z"/>
<path d="M2498 2261 c-91 -25 -190 -105 -303 -246 -22 -28 -47 -55 -55 -62 -8
-6 -23 -27 -33 -46 -19 -34 -19 -35 6 -73 14 -22 62 -75 108 -118 46 -43 117
-110 157 -149 90 -86 118 -94 334 -96 84 -1 153 -3 155 -4 1 -2 -2 -20 -7 -42
-14 -58 -11 -323 3 -365 l12 -35 78 -3 c72 -3 79 -1 84 18 3 11 12 20 20 20
11 0 13 -13 11 -57 l-3 -58 -65 -3 c-35 -2 -74 -1 -86 2 -22 6 -178 159 -232
227 -30 38 -158 167 -247 248 -33 30 -81 74 -107 97 -26 24 -53 44 -60 44 -7
0 -49 -36 -93 -80 -44 -44 -85 -80 -92 -80 -16 0 -34 -35 -27 -53 9 -24 53
-18 60 8 9 37 134 135 172 135 16 0 222 -199 335 -325 49 -55 122 -136 161
-179 94 -104 129 -121 245 -113 46 4 87 11 91 17 4 6 6 98 5 203 -2 106 -3
247 -4 313 l-1 122 -37 7 c-21 4 -110 5 -198 4 -229 -5 -330 -2 -367 10 -18 6
-53 31 -78 56 -25 24 -49 44 -54 45 -5 0 -37 28 -71 63 -35 34 -73 72 -86 84
-60 54 -72 73 -62 96 6 12 52 60 103 107 158 146 187 175 192 190 4 13 38 15
240 13 222 -3 237 -2 259 17 16 13 19 19 10 20 -8 0 -22 7 -32 16 -28 25 -351
29 -441 5z"/>
<path d="M2540 2145 c-52 -35 -208 -200 -215 -228 -5 -17 2 -36 20 -63 41 -61
195 -202 250 -228 49 -24 57 -25 305 -26 140 0 256 -3 259 -6 3 -2 6 -159 8
-347 2 -188 5 -357 6 -374 3 -27 -1 -33 -18 -33 -11 -1 -98 0 -192 0 l-173 1
0 -30 0 -29 96 -7 c130 -10 308 -2 328 15 14 11 16 61 14 438 l-3 426 -35 7
c-52 11 -135 12 -336 4 -180 -8 -182 -7 -236 17 -67 31 -228 186 -228 220 0
14 33 54 94 115 l95 94 208 -3 c185 -3 208 -1 211 13 2 9 -4 24 -13 33 -14 14
-45 16 -213 15 -190 0 -198 -1 -232 -24z"/>
<path d="M4300 2121 c-94 -21 -123 -142 -51 -212 45 -43 132 -30 170 26 59 88
-18 208 -119 186z m55 -67 c31 -20 33 -66 5 -94 -39 -39 -90 -18 -90 38 0 41
7 56 30 65 24 9 29 8 55 -9z"/>
<path d="M5035 2111 c-47 -32 -65 -62 -65 -109 0 -37 6 -50 34 -78 28 -28 41
-34 78 -34 108 1 157 130 76 202 -17 15 -36 28 -42 28 -6 0 -20 3 -31 5 -11 3
-33 -3 -50 -14z m92 -70 c19 -24 15 -52 -9 -78 -25 -27 -45 -29 -70 -6 -21 19
-24 64 -5 93 9 16 18 19 42 14 16 -4 35 -14 42 -23z"/>
<path d="M5392 2112 c-5 -10 -7 -39 -6 -67 1 -27 2 -74 3 -102 1 -47 4 -53 22
-53 23 0 34 10 64 55 l20 30 5 -40 c4 -35 9 -40 33 -43 l28 -3 -3 113 c-3 112
-3 113 -27 113 -22 0 -41 -21 -67 -72 -9 -19 -24 -16 -22 5 4 47 -3 70 -22 75
-13 3 -23 -1 -28 -11z"/>
<path d="M6164 2116 c-70 -31 -94 -108 -54 -173 26 -44 54 -56 112 -51 62 6
89 31 98 92 9 58 -9 99 -52 126 -38 23 -61 24 -104 6z m84 -62 c32 -22 30 -76
-3 -98 -32 -21 -51 -20 -75 4 -24 24 -26 67 -3 92 20 22 51 23 81 2z"/>
<path d="M6382 2122 l-33 -3 3 -112 3 -112 40 -3 c25 -2 52 3 73 14 27 15 32
23 32 54 0 40 -32 80 -64 80 -21 0 -16 24 5 26 35 2 39 5 39 23 0 11 -3 22 -7
24 -16 9 -59 13 -91 9z m58 -156 c0 -15 -24 -28 -34 -19 -13 14 -5 33 14 33
11 0 20 -6 20 -14z"/>
<path d="M6584 2116 c-46 -20 -64 -52 -64 -113 0 -74 28 -104 101 -111 53 -4
56 -3 87 32 55 63 39 157 -35 195 -28 14 -51 13 -89 -3z m84 -66 c24 -23 27
-37 13 -73 -19 -49 -94 -41 -106 12 -7 35 10 68 40 74 11 2 23 5 26 6 3 0 15
-8 27 -19z"/>
<path d="M3661 2078 c-10 -24 -26 -65 -35 -93 -10 -27 -22 -58 -27 -68 -7 -13
-5 -19 5 -23 30 -12 48 2 70 53 12 29 25 55 28 59 6 5 33 -48 51 -98 4 -10 16
-18 28 -18 20 0 21 4 16 43 -7 46 -46 146 -66 171 -24 29 -50 19 -70 -26z"/>
<path d="M3856 2029 c-44 -110 -46 -139 -12 -139 16 0 27 7 31 20 5 15 15 20
45 20 30 0 40 -5 45 -20 8 -26 55 -28 55 -3 0 20 -59 182 -73 201 -5 6 -20 12
-32 12 -19 0 -28 -14 -59 -91z m78 -24 c3 -9 0 -15 -9 -15 -8 0 -15 7 -15 15
0 8 4 15 9 15 5 0 11 -7 15 -15z"/>
<path d="M4050 2113 c-1 -4 -1 -55 -2 -112 -1 -97 1 -105 20 -112 12 -4 35 -4
51 1 17 5 31 6 31 3 0 -4 11 4 25 17 15 14 25 35 25 52 0 34 -39 78 -70 78
-11 0 -20 5 -20 10 0 6 10 10 23 10 32 0 50 14 45 36 -3 16 -14 20 -66 22 -34
2 -62 -1 -62 -5z m90 -147 c0 -15 -24 -28 -34 -19 -13 14 -5 33 14 33 11 0 20
-6 20 -14z"/>
<path d="M4462 2008 l3 -113 28 -3 c25 -3 27 -1 27 37 0 38 3 42 37 56 21 9
41 21 45 28 15 23 8 58 -17 82 -19 20 -34 25 -75 25 l-51 0 3 -112z m88 42 c0
-5 -7 -10 -16 -10 -8 0 -12 5 -9 10 3 6 10 10 16 10 5 0 9 -4 9 -10z"/>
<path d="M4685 2086 c-8 -19 -15 -42 -15 -49 0 -8 -3 -17 -7 -21 -10 -9 -43
-98 -43 -113 0 -21 48 -15 60 7 15 28 75 28 90 -1 8 -14 19 -19 38 -17 35 4
33 19 -16 135 -33 77 -41 88 -65 91 -23 3 -30 -2 -42 -32z m55 -82 c0 -8 -7
-14 -15 -14 -17 0 -18 2 -9 24 7 18 24 12 24 -10z"/>
<path d="M4837 2113 c-14 -14 -6 -45 13 -50 18 -5 20 -14 20 -90 l0 -84 28 3
c27 3 27 4 30 86 3 74 5 82 22 82 16 0 20 7 20 30 l0 30 -63 0 c-35 0 -67 -3
-70 -7z"/>
<path d="M5218 2110 c-1 -5 -2 -57 0 -115 l3 -106 27 3 c24 3 27 8 30 45 3 37
6 42 32 48 37 8 53 28 52 66 -1 49 -27 69 -88 69 -29 0 -54 -4 -56 -10z m88
-51 c3 -6 2 -15 -2 -19 -12 -12 -38 5 -30 19 9 14 23 14 32 0z"/>
<path d="M5604 2097 c-23 -26 -22 -71 2 -98 16 -17 11 -43 -13 -71 -19 -21 -9
-38 23 -38 19 0 28 7 35 30 14 39 29 38 29 -1 0 -27 3 -30 28 -27 l27 3 0 110
0 110 -55 3 c-48 2 -58 0 -76 -21z m76 -47 c0 -5 -7 -10 -15 -10 -8 0 -15 5
-15 10 0 6 7 10 15 10 8 0 15 -4 15 -10z"/>
<path d="M5934 2107 c-2 -7 -3 -58 -2 -113 l3 -99 28 -3 c26 -3 27 -1 27 38 0
36 3 42 29 51 60 21 75 91 28 124 -27 19 -106 20 -113 2z m84 -55 c2 -7 -3
-12 -12 -12 -9 0 -16 7 -16 16 0 17 22 14 28 -4z"/>
<path d="M6750 2096 c0 -14 7 -29 15 -33 10 -6 15 -31 17 -88 3 -78 4 -80 28
-80 24 0 25 2 28 81 2 73 5 82 23 87 15 4 20 12 17 29 -3 21 -9 23 -65 26 -61
3 -63 2 -63 -22z"/>
<path d="M6923 2092 c-79 -68 -30 -202 75 -202 77 0 122 44 122 120 0 34 -6
48 -34 76 -29 29 -41 34 -82 34 -39 0 -56 -6 -81 -28z m122 -47 c32 -31 31
-50 -1 -81 -19 -20 -31 -24 -52 -19 -38 9 -52 24 -52 54 0 66 60 92 105 46z"/>
<path d="M7123 2103 c-4 -10 2 -23 15 -34 19 -15 22 -28 22 -86 0 -76 8 -97
36 -91 16 3 19 14 22 83 2 57 7 82 17 88 8 4 15 19 15 32 0 24 -3 25 -60 25
-47 0 -62 -4 -67 -17z"/>
<path d="M7274 2107 c-2 -7 -3 -58 -2 -113 l3 -99 63 -3 62 -3 0 31 c0 28 -3
30 -35 30 -28 0 -35 4 -35 20 0 16 7 20 35 20 31 0 35 3 35 25 0 22 -4 25 -35
25 -32 0 -51 18 -22 22 6 0 17 2 22 3 6 2 16 3 23 4 6 0 12 12 12 26 0 24 -3
25 -60 25 -41 0 -62 -4 -66 -13z"/>
<path d="M7420 2101 c0 -10 7 -25 16 -32 33 -28 36 -59 9 -105 -14 -23 -25
-50 -25 -58 0 -27 38 -18 62 14 12 17 24 30 27 30 3 0 14 -14 23 -30 16 -28
50 -40 62 -22 3 5 -8 28 -25 53 -35 54 -36 66 -4 109 31 43 32 60 1 60 -15 0
-32 -11 -44 -27 l-20 -28 -22 28 c-25 31 -60 37 -60 8z"/>
<path d="M7627 2114 c-4 -4 -7 -54 -7 -111 0 -83 3 -105 15 -109 24 -9 44 14
47 54 2 30 8 38 26 40 19 3 22 -1 24 -30 0 -18 1 -40 2 -48 1 -9 11 -15 26
-15 l25 0 0 110 c0 106 -1 110 -22 113 -19 3 -23 -3 -29 -37 -5 -34 -10 -41
-30 -41 -19 0 -23 6 -26 38 -2 28 -8 38 -23 40 -12 2 -24 0 -28 -4z"/>
<path d="M7828 2115 c-9 -9 1 -208 11 -218 14 -14 36 3 61 48 14 25 28 45 32
45 5 0 8 -20 8 -44 0 -48 9 -61 39 -51 18 5 19 16 18 110 -1 94 -3 106 -20
111 -21 7 -52 -21 -67 -61 -14 -38 -28 -30 -32 18 -2 33 -7 43 -23 45 -12 2
-24 0 -27 -3z"/>
<path d="M8037 2114 c-4 -4 -7 -53 -7 -110 0 -85 3 -103 16 -108 23 -9 44 11
44 41 0 24 1 23 34 -11 18 -20 38 -36 44 -36 24 0 22 24 -5 63 -16 23 -33 47
-36 53 -4 6 7 30 23 53 36 49 37 61 6 61 -14 0 -30 -10 -41 -26 -17 -27 -30
-25 -30 4 0 17 -35 29 -48 16z"/>
<path d="M8220 2011 c0 -61 4 -112 9 -115 14 -9 57 30 71 64 15 35 32 40 29 8
-5 -55 0 -69 24 -66 21 3 22 8 25 106 2 85 0 103 -13 108 -20 8 -39 -9 -60
-51 -21 -46 -35 -44 -35 4 0 37 -11 51 -41 51 -5 0 -9 -49 -9 -109z"/>
<path d="M5197 1759 c-38 -10 -58 -28 -74 -68 -18 -42 -9 -82 27 -121 24 -25
35 -30 77 -30 55 0 86 17 109 62 13 26 14 37 4 74 -7 24 -20 50 -30 59 -24 22
-78 33 -113 24z m81 -76 c29 -40 -6 -94 -56 -85 -39 7 -52 20 -52 53 0 53 74
75 108 32z"/>
<path d="M3625 1747 c-3 -7 -4 -56 -3 -108 3 -88 4 -94 25 -97 14 -2 26 4 34
20 6 13 19 31 27 41 19 21 32 7 32 -36 0 -24 4 -28 23 -25 21 3 22 7 22 108 0
98 -1 105 -20 105 -11 0 -29 -15 -43 -35 -30 -44 -46 -44 -52 0 -5 36 -35 54
-45 27z"/>
<path d="M4016 1752 c-5 -8 -14 -52 -21 -97 -1 -11 -6 -41 -10 -67 -7 -47 -6
-48 18 -48 25 0 37 16 37 51 0 31 18 22 34 -16 21 -50 52 -48 74 5 9 22 20 40
23 40 4 0 9 -18 13 -40 5 -34 10 -40 31 -40 30 0 30 5 10 118 -16 95 -20 102
-44 102 -25 0 -37 -16 -50 -67 -7 -24 -16 -43 -20 -43 -5 0 -17 24 -27 53 -14
38 -25 53 -41 55 -11 2 -24 -1 -27 -6z"/>
<path d="M4264 1747 c-3 -8 -3 -56 -2 -108 l3 -94 58 -3 c45 -2 59 0 63 13 9
22 -10 39 -44 40 -20 0 -27 5 -27 20 0 16 8 21 38 23 33 3 36 5 27 23 -6 11
-21 19 -35 19 -15 0 -25 6 -25 15 0 11 7 13 29 9 22 -5 29 -2 33 13 9 35 -2
43 -58 43 -36 0 -56 -4 -60 -13z"/>
<path d="M4410 1746 c0 -7 11 -30 25 -50 14 -20 25 -40 25 -43 0 -3 -13 -28
-30 -55 -16 -26 -30 -50 -30 -53 0 -3 13 -5 29 -5 20 0 34 8 45 25 9 14 22 25
30 25 7 0 18 -11 24 -25 8 -17 20 -25 37 -25 32 0 31 11 -1 69 l-27 47 27 42
c15 24 24 47 21 52 -12 20 -44 9 -68 -21 l-25 -32 -12 24 c-7 13 -18 27 -24
31 -18 13 -46 9 -46 -6z"/>
<path d="M4683 1748 c-17 -23 -73 -167 -73 -188 0 -28 46 -28 55 0 5 15 15 20
45 20 29 0 42 -5 50 -20 11 -20 44 -27 54 -12 6 11 -15 71 -53 150 -31 62 -56
78 -78 50z m47 -94 c0 -8 -2 -14 -4 -14 -2 0 -11 -3 -20 -6 -19 -7 -22 16 -4
34 13 13 28 7 28 -14z"/>
<path d="M4820 1730 c0 -19 5 -30 14 -30 17 0 29 -44 20 -72 -3 -11 -3 -35 1
-54 5 -27 11 -34 29 -34 30 0 33 10 30 88 -3 48 0 64 11 69 9 3 15 18 15 34 0
29 0 29 -60 29 l-60 0 0 -30z"/>
<path d="M4965 1739 c-3 -13 -5 -62 -3 -109 3 -83 4 -85 28 -85 22 0 25 5 28
41 3 37 7 42 35 51 30 9 32 12 31 56 0 26 -3 50 -7 53 -4 4 -29 9 -56 12 -46
4 -50 3 -56 -19z m80 -49 c0 -7 -6 -15 -12 -17 -8 -3 -13 4 -13 17 0 13 5 20
13 18 6 -3 12 -11 12 -18z"/>
<path d="M5372 1653 c3 -108 3 -108 28 -108 22 0 26 5 30 45 4 36 9 45 24 45
15 0 22 -11 30 -45 9 -35 16 -46 34 -48 23 -3 23 -3 20 105 -3 108 -3 108 -28
108 -22 0 -25 -5 -28 -37 -3 -33 -7 -38 -28 -38 -21 0 -24 4 -24 40 0 38 -2
40 -30 40 l-31 0 3 -107z"/>
<path d="M5574 1746 c-3 -8 -3 -52 0 -98 3 -46 5 -89 6 -96 0 -25 44 -7 68 28
32 47 40 48 44 3 3 -33 6 -38 28 -38 l25 0 0 105 c0 104 0 105 -24 105 -22 0
-41 -21 -67 -72 -12 -25 -23 -12 -26 30 -2 35 -7 43 -26 45 -13 2 -24 -3 -28
-12z"/>
<path d="M5784 1747 c-3 -8 -3 -56 -2 -108 l3 -94 28 -3 c23 -3 27 0 27 22 0
33 23 34 40 1 12 -23 48 -34 63 -19 3 3 -10 31 -30 61 l-35 55 26 39 c14 21
26 43 26 49 0 18 -43 11 -67 -12 l-23 -21 0 21 c0 17 -6 22 -25 22 -14 0 -28
-6 -31 -13z"/>
<path d="M5967 1754 c-9 -9 -9 -176 -1 -198 11 -28 43 -17 70 24 15 22 30 40
35 40 4 0 9 -17 11 -37 2 -30 8 -39 24 -41 16 -2 23 3 26 20 8 41 -1 181 -12
192 -14 14 -40 -2 -60 -39 -24 -43 -38 -42 -42 2 -2 29 -8 39 -23 41 -12 2
-24 0 -28 -4z"/>
</g>
</svg>
