<svg xmlns="http://www.w3.org/2000/svg" xmlns:xlink="http://www.w3.org/1999/xlink" version="1.1" class="marks" width="1850" height="918" viewBox="0 0 1850 918"><g fill="none" stroke-miterlimit="10" transform="translate(36,13)"><g class="mark-group role-frame root" role="graphics-object" aria-roledescription="group mark container"><g transform="translate(0,0)"><path class="background" aria-hidden="true" d="M0.5,0.5h1811v841h-1811Z"/><g><g class="mark-group role-axis" aria-hidden="true"><g transform="translate(0.5,0.5)"><path class="background" aria-hidden="true" d="M0,0h0v0h0Z" pointer-events="none"/><g><g class="mark-rule role-axis-grid" pointer-events="none"><line transform="translate(0,841)" x2="1811" y2="0" stroke="#ddd" stroke-width="1" opacity="1"/><line transform="translate(0,788)" x2="1811" y2="0" stroke="#ddd" stroke-width="1" opacity="1"/><line transform="translate(0,736)" x2="1811" y2="0" stroke="#ddd" stroke-width="1" opacity="1"/><line transform="translate(0,683)" x2="1811" y2="0" stroke="#ddd" stroke-width="1" opacity="1"/><line transform="translate(0,631)" x2="1811" y2="0" stroke="#ddd" stroke-width="1" opacity="1"/><line transform="translate(0,578)" x2="1811" y2="0" stroke="#ddd" stroke-width="1" opacity="1"/><line transform="translate(0,526)" x2="1811" y2="0" stroke="#ddd" stroke-width="1" opacity="1"/><line transform="translate(0,473)" x2="1811" y2="0" stroke="#ddd" stroke-width="1" opacity="1"/><line transform="translate(0,421)" x2="1811" y2="0" stroke="#ddd" stroke-width="1" opacity="1"/><line transform="translate(0,368)" x2="1811" y2="0" stroke="#ddd" stroke-width="1" opacity="1"/><line transform="translate(0,315)" x2="1811" y2="0" stroke="#ddd" stroke-width="1" opacity="1"/><line transform="translate(0,263)" x2="1811" y2="0" stroke="#ddd" stroke-width="1" opacity="1"/><line transform="translate(0,210)" x2="1811" y2="0" stroke="#ddd" stroke-width="1" opacity="1"/><line transform="translate(0,158)" x2="1811" y2="0" stroke="#ddd" stroke-width="1" opacity="1"/><line transform="translate(0,105)" x2="1811" y2="0" stroke="#ddd" stroke-width="1" opacity="1"/><line transform="translate(0,53)" x2="1811" y2="0" stroke="#ddd" stroke-width="1" opacity="1"/><line transform="translate(0,0)" x2="1811" y2="0" stroke="#ddd" stroke-width="1" opacity="1"/></g></g><path class="foreground" aria-hidden="true" d="" pointer-events="none" display="none"/></g></g><g class="mark-group role-axis" role="graphics-symbol" aria-roledescription="axis" aria-label="X-axis for a time scale with values from Sunday, 08 October 2023, 1:00:00 AM to Sunday, 08 October 2023, 1:08:00 AM"><g transform="translate(0.5,841.5)"><path class="background" aria-hidden="true" d="M0,0h0v0h0Z" pointer-events="none"/><g><g class="mark-rule role-axis-tick" pointer-events="none"><line transform="translate(0,0)" x2="0" y2="5" stroke="#888" stroke-width="1" opacity="1"/><line transform="translate(57,0)" x2="0" y2="5" stroke="#888" stroke-width="1" opacity="1"/><line transform="translate(113,0)" x2="0" y2="5" stroke="#888" stroke-width="1" opacity="1"/><line transform="translate(170,0)" x2="0" y2="5" stroke="#888" stroke-width="1" opacity="1"/><line transform="translate(226,0)" x2="0" y2="5" stroke="#888" stroke-width="1" opacity="1"/><line transform="translate(283,0)" x2="0" y2="5" stroke="#888" stroke-width="1" opacity="1"/><line transform="translate(340,0)" x2="0" y2="5" stroke="#888" stroke-width="1" opacity="1"/><line transform="translate(396,0)" x2="0" y2="5" stroke="#888" stroke-width="1" opacity="1"/><line transform="translate(453,0)" x2="0" y2="5" stroke="#888" stroke-width="1" opacity="1"/><line transform="translate(509,0)" x2="0" y2="5" stroke="#888" stroke-width="1" opacity="1"/><line transform="translate(566,0)" x2="0" y2="5" stroke="#888" stroke-width="1" opacity="1"/><line transform="translate(623,0)" x2="0" y2="5" stroke="#888" stroke-width="1" opacity="1"/><line transform="translate(679,0)" x2="0" y2="5" stroke="#888" stroke-width="1" opacity="1"/><line transform="translate(736,0)" x2="0" y2="5" stroke="#888" stroke-width="1" opacity="1"/><line transform="translate(792,0)" x2="0" y2="5" stroke="#888" stroke-width="1" opacity="1"/><line transform="translate(849,0)" x2="0" y2="5" stroke="#888" stroke-width="1" opacity="1"/><line transform="translate(906,0)" x2="0" y2="5" stroke="#888" stroke-width="1" opacity="1"/><line transform="translate(962,0)" x2="0" y2="5" stroke="#888" stroke-width="1" opacity="1"/><line transform="translate(1019,0)" x2="0" y2="5" stroke="#888" stroke-width="1" opacity="1"/><line transform="translate(1075,0)" x2="0" y2="5" stroke="#888" stroke-width="1" opacity="1"/><line transform="translate(1132,0)" x2="0" y2="5" stroke="#888" stroke-width="1" opacity="1"/><line transform="translate(1188,0)" x2="0" y2="5" stroke="#888" stroke-width="1" opacity="1"/><line transform="translate(1245,0)" x2="0" y2="5" stroke="#888" stroke-width="1" opacity="1"/><line transform="translate(1302,0)" x2="0" y2="5" stroke="#888" stroke-width="1" opacity="1"/><line transform="translate(1358,0)" x2="0" y2="5" stroke="#888" stroke-width="1" opacity="1"/><line transform="translate(1415,0)" x2="0" y2="5" stroke="#888" stroke-width="1" opacity="1"/><line transform="translate(1471,0)" x2="0" y2="5" stroke="#888" stroke-width="1" opacity="1"/><line transform="translate(1528,0)" x2="0" y2="5" stroke="#888" stroke-width="1" opacity="1"/><line transform="translate(1585,0)" x2="0" y2="5" stroke="#888" stroke-width="1" opacity="1"/><line transform="translate(1641,0)" x2="0" y2="5" stroke="#888" stroke-width="1" opacity="1"/><line transform="translate(1698,0)" x2="0" y2="5" stroke="#888" stroke-width="1" opacity="1"/><line transform="translate(1754,0)" x2="0" y2="5" stroke="#888" stroke-width="1" opacity="1"/><line transform="translate(1811,0)" x2="0" y2="5" stroke="#888" stroke-width="1" opacity="1"/></g><g class="mark-text role-axis-label" pointer-events="none"><text text-anchor="start" transform="translate(0,15)" font-family="sans-serif" font-size="10px" fill="#000" opacity="1">01 AM</text><text text-anchor="middle" transform="translate(56.59375,15)" font-family="sans-serif" font-size="10px" fill="#000" opacity="1">:15</text><text text-anchor="middle" transform="translate(113.1875,15)" font-family="sans-serif" font-size="10px" fill="#000" opacity="1">:30</text><text text-anchor="middle" transform="translate(169.78125,15)" font-family="sans-serif" font-size="10px" fill="#000" opacity="1">:45</text><text text-anchor="middle" transform="translate(226.375,15)" font-family="sans-serif" font-size="10px" fill="#000" opacity="1">01:01</text><text text-anchor="middle" transform="translate(282.96875,15)" font-family="sans-serif" font-size="10px" fill="#000" opacity="1">:15</text><text text-anchor="middle" transform="translate(339.5625,15)" font-family="sans-serif" font-size="10px" fill="#000" opacity="1">:30</text><text text-anchor="middle" transform="translate(396.15625,15)" font-family="sans-serif" font-size="10px" fill="#000" opacity="1">:45</text><text text-anchor="middle" transform="translate(452.75,15)" font-family="sans-serif" font-size="10px" fill="#000" opacity="1">01:02</text><text text-anchor="middle" transform="translate(509.34375,15)" font-family="sans-serif" font-size="10px" fill="#000" opacity="1">:15</text><text text-anchor="middle" transform="translate(565.9375,15)" font-family="sans-serif" font-size="10px" fill="#000" opacity="1">:30</text><text text-anchor="middle" transform="translate(622.53125,15)" font-family="sans-serif" font-size="10px" fill="#000" opacity="1">:45</text><text text-anchor="middle" transform="translate(679.125,15)" font-family="sans-serif" font-size="10px" fill="#000" opacity="1">01:03</text><text text-anchor="middle" transform="translate(735.71875,15)" font-family="sans-serif" font-size="10px" fill="#000" opacity="1">:15</text><text text-anchor="middle" transform="translate(792.3125,15)" font-family="sans-serif" font-size="10px" fill="#000" opacity="1">:30</text><text text-anchor="middle" transform="translate(848.90625,15)" font-family="sans-serif" font-size="10px" fill="#000" opacity="1">:45</text><text text-anchor="middle" transform="translate(905.5,15)" font-family="sans-serif" font-size="10px" fill="#000" opacity="1">01:04</text><text text-anchor="middle" transform="translate(962.09375,15)" font-family="sans-serif" font-size="10px" fill="#000" opacity="1">:15</text><text text-anchor="middle" transform="translate(1018.6875,15)" font-family="sans-serif" font-size="10px" fill="#000" opacity="1">:30</text><text text-anchor="middle" transform="translate(1075.28125,15)" font-family="sans-serif" font-size="10px" fill="#000" opacity="1">:45</text><text text-anchor="middle" transform="translate(1131.875,15)" font-family="sans-serif" font-size="10px" fill="#000" opacity="1">01:05</text><text text-anchor="middle" transform="translate(1188.46875,15)" font-family="sans-serif" font-size="10px" fill="#000" opacity="1">:15</text><text text-anchor="middle" transform="translate(1245.0625,15)" font-family="sans-serif" font-size="10px" fill="#000" opacity="1">:30</text><text text-anchor="middle" transform="translate(1301.65625,15)" font-family="sans-serif" font-size="10px" fill="#000" opacity="1">:45</text><text text-anchor="middle" transform="translate(1358.25,15)" font-family="sans-serif" font-size="10px" fill="#000" opacity="1">01:06</text><text text-anchor="middle" transform="translate(1414.84375,15)" font-family="sans-serif" font-size="10px" fill="#000" opacity="1">:15</text><text text-anchor="middle" transform="translate(1471.4375,15)" font-family="sans-serif" font-size="10px" fill="#000" opacity="1">:30</text><text text-anchor="middle" transform="translate(1528.03125,15)" font-family="sans-serif" font-size="10px" fill="#000" opacity="1">:45</text><text text-anchor="middle" transform="translate(1584.625,15)" font-family="sans-serif" font-size="10px" fill="#000" opacity="1">01:07</text><text text-anchor="middle" transform="translate(1641.21875,15)" font-family="sans-serif" font-size="10px" fill="#000" opacity="1">:15</text><text text-anchor="middle" transform="translate(1697.8125,15)" font-family="sans-serif" font-size="10px" fill="#000" opacity="1">:30</text><text text-anchor="middle" transform="translate(1754.40625,15)" font-family="sans-serif" font-size="10px" fill="#000" opacity="1">:45</text><text text-anchor="end" transform="translate(1811,15)" font-family="sans-serif" font-size="10px" fill="#000" opacity="1">01:08</text></g><g class="mark-rule role-axis-domain" pointer-events="none"><line transform="translate(0,0)" x2="1811" y2="0" stroke="#888" stroke-width="1" opacity="1"/></g></g><path class="foreground" aria-hidden="true" d="" pointer-events="none" display="none"/></g></g><g class="mark-group role-axis" role="graphics-symbol" aria-roledescription="axis" aria-label="Y-axis titled 'Trace Latency (s)' for a linear scale with values from 0 to 8"><g transform="translate(0.5,0.5)"><path class="background" aria-hidden="true" d="M0,0h0v0h0Z" pointer-events="none"/><g><g class="mark-rule role-axis-tick" pointer-events="none"><line transform="translate(0,841)" x2="-5" y2="0" stroke="#888" stroke-width="1" opacity="1"/><line transform="translate(0,788)" x2="-5" y2="0" stroke="#888" stroke-width="1" opacity="1"/><line transform="translate(0,736)" x2="-5" y2="0" stroke="#888" stroke-width="1" opacity="1"/><line transform="translate(0,683)" x2="-5" y2="0" stroke="#888" stroke-width="1" opacity="1"/><line transform="translate(0,631)" x2="-5" y2="0" stroke="#888" stroke-width="1" opacity="1"/><line transform="translate(0,578)" x2="-5" y2="0" stroke="#888" stroke-width="1" opacity="1"/><line transform="translate(0,526)" x2="-5" y2="0" stroke="#888" stroke-width="1" opacity="1"/><line transform="translate(0,473)" x2="-5" y2="0" stroke="#888" stroke-width="1" opacity="1"/><line transform="translate(0,421)" x2="-5" y2="0" stroke="#888" stroke-width="1" opacity="1"/><line transform="translate(0,368)" x2="-5" y2="0" stroke="#888" stroke-width="1" opacity="1"/><line transform="translate(0,315)" x2="-5" y2="0" stroke="#888" stroke-width="1" opacity="1"/><line transform="translate(0,263)" x2="-5" y2="0" stroke="#888" stroke-width="1" opacity="1"/><line transform="translate(0,210)" x2="-5" y2="0" stroke="#888" stroke-width="1" opacity="1"/><line transform="translate(0,158)" x2="-5" y2="0" stroke="#888" stroke-width="1" opacity="1"/><line transform="translate(0,105)" x2="-5" y2="0" stroke="#888" stroke-width="1" opacity="1"/><line transform="translate(0,53)" x2="-5" y2="0" stroke="#888" stroke-width="1" opacity="1"/><line transform="translate(0,0)" x2="-5" y2="0" stroke="#888" stroke-width="1" opacity="1"/></g><g class="mark-text role-axis-label" pointer-events="none"><text text-anchor="end" transform="translate(-7,844)" font-family="sans-serif" font-size="10px" fill="#000" opacity="1">0.0</text><text text-anchor="end" transform="translate(-7,791.4375)" font-family="sans-serif" font-size="10px" fill="#000" opacity="1">0.5</text><text text-anchor="end" transform="translate(-7,738.875)" font-family="sans-serif" font-size="10px" fill="#000" opacity="1">1.0</text><text text-anchor="end" transform="translate(-7,686.3125)" font-family="sans-serif" font-size="10px" fill="#000" opacity="1">1.5</text><text text-anchor="end" transform="translate(-7,633.75)" font-family="sans-serif" font-size="10px" fill="#000" opacity="1">2.0</text><text text-anchor="end" transform="translate(-7,581.1875)" font-family="sans-serif" font-size="10px" fill="#000" opacity="1">2.5</text><text text-anchor="end" transform="translate(-7,528.625)" font-family="sans-serif" font-size="10px" fill="#000" opacity="1">3.0</text><text text-anchor="end" transform="translate(-7,476.0625)" font-family="sans-serif" font-size="10px" fill="#000" opacity="1">3.5</text><text text-anchor="end" transform="translate(-7,423.5)" font-family="sans-serif" font-size="10px" fill="#000" opacity="1">4.0</text><text text-anchor="end" transform="translate(-7,370.9375)" font-family="sans-serif" font-size="10px" fill="#000" opacity="1">4.5</text><text text-anchor="end" transform="translate(-7,318.375)" font-family="sans-serif" font-size="10px" fill="#000" opacity="1">5.0</text><text text-anchor="end" transform="translate(-7,265.8125)" font-family="sans-serif" font-size="10px" fill="#000" opacity="1">5.5</text><text text-anchor="end" transform="translate(-7,213.25)" font-family="sans-serif" font-size="10px" fill="#000" opacity="1">6.0</text><text text-anchor="end" transform="translate(-7,160.6875)" font-family="sans-serif" font-size="10px" fill="#000" opacity="1">6.5</text><text text-anchor="end" transform="translate(-7,108.125)" font-family="sans-serif" font-size="10px" fill="#000" opacity="1">7.0</text><text text-anchor="end" transform="translate(-7,55.5625)" font-family="sans-serif" font-size="10px" fill="#000" opacity="1">7.5</text><text text-anchor="end" transform="translate(-7,3)" font-family="sans-serif" font-size="10px" fill="#000" opacity="1">8.0</text></g><g class="mark-rule role-axis-domain" pointer-events="none"><line transform="translate(0,841)" x2="0" y2="-841" stroke="#888" stroke-width="1" opacity="1"/></g><g class="mark-text role-axis-title" pointer-events="none"><text text-anchor="middle" transform="translate(-24.9013671875,420.5) rotate(-90) translate(0,-2)" font-family="sans-serif" font-size="11px" font-weight="bold" fill="#000" opacity="1">Trace Latency (s)</text></g></g><path class="foreground" aria-hidden="true" d="" pointer-events="none" display="none"/></g></g><g class="mark-group role-scope layer_0_layer_0_pathgroup" role="graphics-object" aria-roledescription="group mark container"><g transform="translate(0,0)"><path class="background" aria-hidden="true" d="M0,0h1811v841h-1811Z"/><g><g class="mark-line role-mark layer_0_layer_0_marks" role="graphics-object" aria-roledescription="line mark container" pointer-events="none"><path aria-label="ts: Oct 08, 2023; Trace Latency (s): 1.86; Project: project_name" role="graphics-symbol" aria-roledescription="line mark" d="M0,645.089L226.375,755.069L679.125,766.549L1358.25,650.355L1811,690.296" stroke="rgb(53, 183, 121)" stroke-width="2" stroke-dasharray="1,0" opacity="0.8"/></g></g><path class="foreground" aria-hidden="true" d="" display="none"/></g></g><g class="mark-symbol role-mark layer_0_layer_1_marks" role="graphics-object" aria-roledescription="symbol mark container" pointer-events="none"><path aria-label="ts: Oct 08, 2023; Trace Latency (s): 1.86; Project: project_name" role="graphics-symbol" aria-roledescription="point" transform="translate(0,645.0886294999999)" d="M2.739,0A2.739,2.739,0,1,1,-2.739,0A2.739,2.739,0,1,1,2.739,0" fill="rgb(53, 183, 121)" stroke-width="2" stroke-dasharray="1,0" opacity="0.8"/><path aria-label="ts: Oct 08, 2023; Trace Latency (s): 0.82; Project: project_name" role="graphics-symbol" aria-roledescription="point" transform="translate(226.375,755.069143)" d="M2.739,0A2.739,2.739,0,1,1,-2.739,0A2.739,2.739,0,1,1,2.739,0" fill="rgb(53, 183, 121)" stroke-width="2" stroke-dasharray="1,0" opacity="0.8"/><path aria-label="ts: Oct 08, 2023; Trace Latency (s): 0.71; Project: project_name" role="graphics-symbol" aria-roledescription="point" transform="translate(679.125,766.548898125)" d="M2.739,0A2.739,2.739,0,1,1,-2.739,0A2.739,2.739,0,1,1,2.739,0" fill="rgb(53, 183, 121)" stroke-width="2" stroke-dasharray="1,0" opacity="0.8"/><path aria-label="ts: Oct 08, 2023; Trace Latency (s): 1.81; Project: project_name" role="graphics-symbol" aria-roledescription="point" transform="translate(1358.25,650.354551)" d="M2.739,0A2.739,2.739,0,1,1,-2.739,0A2.739,2.739,0,1,1,2.739,0" fill="rgb(53, 183, 121)" stroke-width="2" stroke-dasharray="1,0" opacity="0.8"/><path aria-label="ts: Oct 08, 2023; Trace Latency (s): 1.43; Project: project_name" role="graphics-symbol" aria-roledescription="point" transform="translate(1811,690.296164)" d="M2.739,0A2.739,2.739,0,1,1,-2.739,0A2.739,2.739,0,1,1,2.739,0" fill="rgb(53, 183, 121)" stroke-width="2" stroke-dasharray="1,0" opacity="0.8"/></g><g class="mark-group role-scope layer_1_layer_0_pathgroup" role="graphics-object" aria-roledescription="group mark container"><g transform="translate(0,0)"><path class="background" aria-hidden="true" d="M0,0h1811v841h-1811Z"/><g><g class="mark-line role-mark layer_1_layer_0_marks" role="graphics-object" aria-roledescription="line mark container" pointer-events="none"><path aria-label="ts: Oct 08, 2023; p95_latency: 2.82; Project: project_name" role="graphics-symbol" aria-roledescription="line mark" d="M0,544.615L226.375,755.069L679.125,756.057L1358.25,101.385L1811,185.828" stroke="rgb(49, 104, 142)" stroke-width="2" stroke-dasharray="1,0" opacity="0.8"/></g></g><path class="foreground" aria-hidden="true" d="" display="none"/></g></g><g class="mark-symbol role-mark layer_1_layer_1_marks" role="graphics-object" aria-roledescription="symbol mark container" pointer-events="none"><path aria-label="ts: Oct 08, 2023; p95_latency: 2.82; Project: project_name" role="graphics-symbol" aria-roledescription="point" transform="translate(0,544.6152005)" d="M2.739,0A2.739,2.739,0,1,1,-2.739,0A2.739,2.739,0,1,1,2.739,0" fill="rgb(49, 104, 142)" stroke-width="2" stroke-dasharray="1,0" opacity="0.8"/><path aria-label="ts: Oct 08, 2023; p95_latency: 0.82; Project: project_name" role="graphics-symbol" aria-roledescription="point" transform="translate(226.375,755.069143)" d="M2.739,0A2.739,2.739,0,1,1,-2.739,0A2.739,2.739,0,1,1,2.739,0" fill="rgb(49, 104, 142)" stroke-width="2" stroke-dasharray="1,0" opacity="0.8"/><path aria-label="ts: Oct 08, 2023; p95_latency: 0.81; Project: project_name" role="graphics-symbol" aria-roledescription="point" transform="translate(679.125,756.057002625)" d="M2.739,0A2.739,2.739,0,1,1,-2.739,0A2.739,2.739,0,1,1,2.739,0" fill="rgb(49, 104, 142)" stroke-width="2" stroke-dasharray="1,0" opacity="0.8"/><path aria-label="ts: Oct 08, 2023; p95_latency: 7.04; Project: project_name" role="graphics-symbol" aria-roledescription="point" transform="translate(1358.25,101.38486274999998)" d="M2.739,0A2.739,2.739,0,1,1,-2.739,0A2.739,2.739,0,1,1,2.739,0" fill="rgb(49, 104, 142)" stroke-width="2" stroke-dasharray="1,0" opacity="0.8"/><path aria-label="ts: Oct 08, 2023; p95_latency: 6.23; Project: project_name" role="graphics-symbol" aria-roledescription="point" transform="translate(1811,185.82809587499995)" d="M2.739,0A2.739,2.739,0,1,1,-2.739,0A2.739,2.739,0,1,1,2.739,0" fill="rgb(49, 104, 142)" stroke-width="2" stroke-dasharray="1,0" opacity="0.8"/></g><g class="mark-rule role-mark layer_2_marks" role="graphics-object" aria-roledescription="rule mark container"><line aria-label="ts: Oct 08, 2023; Project: project_name; Period c/: Oct 08, 2023 01:00; Period Size: 1min; P50: 1.86; P95: 2.82" role="graphics-symbol" aria-roledescription="rule mark" transform="translate(0,0)" x2="0" y2="841" stroke="black" stroke-dasharray="1,0" opacity="0"/><line aria-label="ts: Oct 08, 2023; Project: project_name; Period c/: Oct 08, 2023 01:01; Period Size: 1min; P50: 0.82; P95: 0.82" role="graphics-symbol" aria-roledescription="rule mark" transform="translate(226.375,0)" x2="0" y2="841" stroke="black" stroke-dasharray="1,0" opacity="0"/><line aria-label="ts: Oct 08, 2023; Project: project_name; Period c/: Oct 08, 2023 01:03; Period Size: 1min; P50: 0.71; P95: 0.81" role="graphics-symbol" aria-roledescription="rule mark" transform="translate(679.125,0)" x2="0" y2="841" stroke="black" stroke-dasharray="1,0" opacity="0"/><line aria-label="ts: Oct 08, 2023; Project: project_name; Period c/: Oct 08, 2023 01:06; Period Size: 1min; P50: 1.81; P95: 7.04" role="graphics-symbol" aria-roledescription="rule mark" transform="translate(1358.25,0)" x2="0" y2="841" stroke="black" stroke-dasharray="1,0" opacity="0"/><line aria-label="ts: Oct 08, 2023; Project: project_name; Period c/: Oct 08, 2023 01:08; Period Size: 1min; P50: 1.43; P95: 6.23" role="graphics-symbol" aria-roledescription="rule mark" transform="translate(1811,0)" x2="0" y2="841" stroke="black" stroke-dasharray="1,0" opacity="0"/></g><g class="mark-path role-mark layer_2_voronoi" role="graphics-symbol" aria-roledescription="path mark container"><path transform="translate(0,0)" d="M113.18750162404305,0L113.1875027150051,841L0,841L0,0Z" stroke-width="0.35"/><path transform="translate(0,0)" d="M113.1875027150051,841L113.18750162404305,0L452.7500062872065,0L452.75001054548704,841Z" stroke-width="0.35"/><path transform="translate(0,0)" d="M452.75001054548704,841L452.7500062872065,0L1018.6875126576988,0L1018.6875213505916,841Z" stroke-width="0.35"/><path transform="translate(0,0)" d="M1018.6875213505916,841L1018.6875126576988,0L1584.6250169752677,0L1584.6250284724968,841Z" stroke-width="0.35"/><path transform="translate(0,0)" d="M1811,0L1811,841L1584.6250284724968,841L1584.6250169752677,0Z" stroke-width="0.35"/></g><g class="mark-group role-legend" role="graphics-symbol" aria-roledescription="legend" aria-label="Symbol legend titled 'Metric' for fill color and stroke color with 2 values: P50, P95"><g transform="translate(0,876)"><path class="background" aria-hidden="true" d="M0,0h79v29h-79Z" pointer-events="none"/><g><g class="mark-group role-legend-entry"><g transform="translate(0,16)"><path class="background" aria-hidden="true" d="M0,0h0v0h0Z" pointer-events="none"/><g><g class="mark-group role-scope" role="graphics-object" aria-roledescription="group mark container"><g transform="translate(0,0.25)"><path class="background" aria-hidden="true" d="M0,0h33.79296875v12.5h-33.79296875Z" pointer-events="none" opacity="1"/><g><g class="mark-symbol role-legend-symbol" pointer-events="none"><path transform="translate(6,6)" d="M5,0A5,5,0,1,1,-5,0A5,5,0,1,1,5,0" fill="rgb(53, 183, 121)" stroke="rgb(53, 183, 121)" stroke-width="1.5" opacity="0.8"/></g><g class="mark-text role-legend-label" pointer-events="none"><text text-anchor="start" transform="translate(16,9)" font-family="sans-serif" font-size="10px" fill="#000" opacity="1">P50</text></g></g><path class="foreground" aria-hidden="true" d="" pointer-events="none" display="none"/></g><g transform="translate(45,0.25)"><path class="background" aria-hidden="true" d="M0,0h33.79296875v12.5h-33.79296875Z" pointer-events="none" opacity="1"/><g><g class="mark-symbol role-legend-symbol" pointer-events="none"><path transform="translate(6,6)" d="M5,0A5,5,0,1,1,-5,0A5,5,0,1,1,5,0" fill="rgb(49, 104, 142)" stroke="rgb(49, 104, 142)" stroke-width="1.5" opacity="0.8"/></g><g class="mark-text role-legend-label" pointer-events="none"><text text-anchor="start" transform="translate(16,9)" font-family="sans-serif" font-size="10px" fill="#000" opacity="1">P95</text></g></g><path class="foreground" aria-hidden="true" d="" pointer-events="none" display="none"/></g></g></g><path class="foreground" aria-hidden="true" d="" pointer-events="none" display="none"/></g></g><g class="mark-text role-legend-title" pointer-events="none"><text text-anchor="start" transform="translate(0,9)" font-family="sans-serif" font-size="11px" font-weight="bold" fill="#000" opacity="1">Metric</text></g></g><path class="foreground" aria-hidden="true" d="" pointer-events="none" display="none"/></g></g><g class="mark-group role-legend" role="graphics-symbol" aria-roledescription="legend" aria-label="Symbol legend titled 'Project' for strokeDash with 1 value: project_name"><g transform="translate(87,876)"><path class="background" aria-hidden="true" d="M0,0h77v29h-77Z" pointer-events="none"/><g><g class="mark-group role-legend-entry"><g transform="translate(0,16)"><path class="background" aria-hidden="true" d="M0,0h0v0h0Z" pointer-events="none"/><g><g class="mark-group role-scope" role="graphics-object" aria-roledescription="group mark container"><g transform="translate(0,0)"><path class="background" aria-hidden="true" d="M0,0h76.5908203125v12.5h-76.5908203125Z" pointer-events="none" opacity="1"/><g><g class="mark-symbol role-legend-symbol" pointer-events="none"><path transform="translate(6,6)" d="M5,0A5,5,0,1,1,-5,0A5,5,0,1,1,5,0" stroke="rgb(53, 183, 121)" stroke-width="1.5" stroke-dasharray="1,0" opacity="0.8"/></g><g class="mark-text role-legend-label" pointer-events="none"><text text-anchor="start" transform="translate(16,9)" font-family="sans-serif" font-size="10px" fill="#000" opacity="1">project_name</text></g></g><path class="foreground" aria-hidden="true" d="" pointer-events="none" display="none"/></g></g></g><path class="foreground" aria-hidden="true" d="" pointer-events="none" display="none"/></g></g><g class="mark-text role-legend-title" pointer-events="none"><text text-anchor="start" transform="translate(0,9)" font-family="sans-serif" font-size="11px" font-weight="bold" fill="#000" opacity="1">Project</text></g></g><path class="foreground" aria-hidden="true" d="" pointer-events="none" display="none"/></g></g></g><path class="foreground" aria-hidden="true" d="" display="none"/></g></g></g></svg>